<svg xmlns="http://www.w3.org/2000/svg" xmlns:xlink="http://www.w3.org/1999/xlink" width="500" zoomAndPan="magnify" viewBox="0 0 375 374.999991" height="500" preserveAspectRatio="xMidYMid meet" version="1.0"><defs><clipPath id="5d9de4b0f1"><path d="M 77.457031 180.738281 L 297.648438 180.738281 L 297.648438 283.601562 L 77.457031 283.601562 Z M 77.457031 180.738281 " clip-rule="nonzero"/></clipPath><clipPath id="52bad03fb1"><path d="M 77.457031 248.851562 L 77.457031 215.488281 L 297.542969 180.738281 L 297.542969 283.601562 Z M 77.457031 248.851562 " clip-rule="nonzero"/></clipPath><clipPath id="356bfbfa80"><path d="M 77.34375 91.390625 L 297.535156 91.390625 L 297.535156 194.253906 L 77.34375 194.253906 Z M 77.34375 91.390625 " clip-rule="nonzero"/></clipPath><clipPath id="5651161752"><path d="M 297.535156 126.140625 L 297.535156 159.503906 L 77.449219 194.253906 L 77.449219 91.390625 Z M 297.535156 126.140625 " clip-rule="nonzero"/></clipPath></defs><rect x="-37.5" width="450" fill="#ffffff" y="-37.499999" height="449.999989" fill-opacity="1"/><rect x="-37.5" width="450" fill="#000000" y="-37.499999" height="449.999989" fill-opacity="1"/><g clip-path="url(#5d9de4b0f1)"><g clip-path="url(#52bad03fb1)"><path fill="#ffffff" d="M 77.457031 283.601562 L 77.457031 180.738281 L 297.648438 180.738281 L 297.648438 283.601562 Z M 77.457031 283.601562 " fill-opacity="1" fill-rule="nonzero"/></g></g><g clip-path="url(#356bfbfa80)"><g clip-path="url(#5651161752)"><path fill="#ffffff" d="M 297.535156 91.390625 L 297.535156 194.253906 L 77.34375 194.253906 L 77.34375 91.390625 Z M 297.535156 91.390625 " fill-opacity="1" fill-rule="nonzero"/></g></g></svg>